<svg width="248" height="38" viewBox="0 0 248 38" fill="none" xmlns="http://www.w3.org/2000/svg">
<path d="M21.64 37L19.912 29.848H10.216L8.536 37H0.376L10.408 3.736H19.96L29.992 37H21.64ZM11.56 24.136H18.568L15.064 9.448L11.56 24.136ZM39.0565 37.816C36.8485 37.816 35.1205 37.192 33.8725 35.944C32.6565 34.664 32.0485 32.856 32.0485 30.52V1.384L39.6325 0.567997V30.232C39.6325 31.288 40.0645 31.816 40.9285 31.816C41.3765 31.816 41.7925 31.736 42.1765 31.576L43.6645 36.952C42.2885 37.528 40.7525 37.816 39.0565 37.816ZM68.5281 23.752C68.5281 24.808 68.4801 25.72 68.3841 26.488H52.5921C52.8481 28.632 53.4561 30.136 54.4161 31C55.3761 31.864 56.7041 32.296 58.4001 32.296C59.4241 32.296 60.4161 32.12 61.3761 31.768C62.3361 31.384 63.3761 30.808 64.4961 30.04L67.6161 34.264C64.6401 36.632 61.3281 37.816 57.6801 37.816C53.5521 37.816 50.3841 36.6 48.1761 34.168C45.9681 31.736 44.8641 28.472 44.8641 24.376C44.8641 21.784 45.3281 19.464 46.2561 17.416C47.1841 15.336 48.5441 13.704 50.3361 12.52C52.1281 11.304 54.2721 10.696 56.7681 10.696C60.4481 10.696 63.3281 11.848 65.4081 14.152C67.4881 16.456 68.5281 19.656 68.5281 23.752ZM61.0881 21.592C61.0241 17.688 59.6481 15.736 56.9601 15.736C55.6481 15.736 54.6241 16.216 53.8881 17.176C53.1841 18.136 52.7521 19.72 52.5921 21.928H61.0881V21.592ZM84.4525 6.184C83.3645 6.184 82.5805 6.44 82.1005 6.952C81.6205 7.464 81.3805 8.328 81.3805 9.544V11.512H87.3805L86.5645 16.792H81.3805V37H73.7965V16.792H69.9565V11.512H73.7965V9.256C73.7965 6.696 74.6285 4.616 76.2925 3.016C77.9885 1.384 80.4045 0.567997 83.5405 0.567997C86.0685 0.567997 88.3885 1.112 90.5005 2.2L88.4365 7.144C87.1565 6.504 85.8285 6.184 84.4525 6.184ZM115.017 2.92C117.097 2.92 118.937 3.224 120.537 3.832C122.169 4.44 123.705 5.352 125.145 6.568L121.401 11.032C120.409 10.264 119.433 9.688 118.473 9.304C117.513 8.92 116.489 8.728 115.401 8.728C113.161 8.728 111.385 9.672 110.073 11.56C108.793 13.448 108.153 16.36 108.153 20.296C108.153 24.168 108.793 27.048 110.073 28.936C111.385 30.792 113.193 31.72 115.497 31.72C116.713 31.72 117.817 31.496 118.809 31.048C119.801 30.568 120.873 29.896 122.025 29.032L125.529 33.544C124.281 34.792 122.761 35.816 120.969 36.616C119.209 37.416 117.257 37.816 115.113 37.816C112.041 37.816 109.369 37.144 107.097 35.8C104.825 34.456 103.049 32.472 101.769 29.848C100.521 27.192 99.8965 24.008 99.8965 20.296C99.8965 16.68 100.537 13.56 101.817 10.936C103.129 8.312 104.921 6.328 107.193 4.984C109.497 3.608 112.105 2.92 115.017 2.92ZM139 10.696C142.904 10.696 145.96 11.896 148.168 14.296C150.376 16.664 151.48 19.992 151.48 24.28C151.48 27 150.968 29.384 149.944 31.432C148.952 33.448 147.512 35.016 145.624 36.136C143.768 37.256 141.56 37.816 139 37.816C135.128 37.816 132.072 36.632 129.832 34.264C127.624 31.864 126.52 28.52 126.52 24.232C126.52 21.512 127.016 19.144 128.008 17.128C129.032 15.08 130.472 13.496 132.328 12.376C134.216 11.256 136.44 10.696 139 10.696ZM139 16.264C137.464 16.264 136.312 16.92 135.544 18.232C134.776 19.512 134.392 21.512 134.392 24.232C134.392 27.016 134.76 29.048 135.496 30.328C136.264 31.608 137.432 32.248 139 32.248C140.536 32.248 141.688 31.608 142.456 30.328C143.224 29.016 143.608 27 143.608 24.28C143.608 21.496 143.224 19.464 142.456 18.184C141.72 16.904 140.568 16.264 139 16.264ZM178.216 23.752C178.216 24.808 178.168 25.72 178.072 26.488H162.28C162.536 28.632 163.144 30.136 164.104 31C165.064 31.864 166.392 32.296 168.088 32.296C169.112 32.296 170.104 32.12 171.064 31.768C172.024 31.384 173.064 30.808 174.184 30.04L177.304 34.264C174.328 36.632 171.016 37.816 167.368 37.816C163.24 37.816 160.072 36.6 157.864 34.168C155.656 31.736 154.552 28.472 154.552 24.376C154.552 21.784 155.016 19.464 155.944 17.416C156.872 15.336 158.232 13.704 160.024 12.52C161.816 11.304 163.96 10.696 166.456 10.696C170.136 10.696 173.016 11.848 175.096 14.152C177.176 16.456 178.216 19.656 178.216 23.752ZM170.776 21.592C170.712 17.688 169.336 15.736 166.648 15.736C165.336 15.736 164.312 16.216 163.576 17.176C162.872 18.136 162.44 19.72 162.28 21.928H170.776V21.592ZM189.244 37.816C187.036 37.816 185.308 37.192 184.06 35.944C182.844 34.664 182.236 32.856 182.236 30.52V1.384L189.82 0.567997V30.232C189.82 31.288 190.252 31.816 191.116 31.816C191.564 31.816 191.98 31.736 192.364 31.576L193.852 36.952C192.476 37.528 190.94 37.816 189.244 37.816ZM211.654 10.696C213.862 10.696 215.59 11.368 216.838 12.712C218.086 14.056 218.71 15.944 218.71 18.376V37H211.126V19.672C211.126 18.392 210.918 17.512 210.502 17.032C210.086 16.52 209.494 16.264 208.726 16.264C207.19 16.264 205.718 17.352 204.31 19.528V37H196.726V1.384L204.31 0.615999V14.248C205.366 13.064 206.486 12.184 207.67 11.608C208.854 11 210.182 10.696 211.654 10.696ZM235.469 10.696C239.373 10.696 242.429 11.896 244.637 14.296C246.845 16.664 247.949 19.992 247.949 24.28C247.949 27 247.437 29.384 246.413 31.432C245.421 33.448 243.981 35.016 242.093 36.136C240.237 37.256 238.029 37.816 235.469 37.816C231.597 37.816 228.541 36.632 226.301 34.264C224.093 31.864 222.989 28.52 222.989 24.232C222.989 21.512 223.485 19.144 224.477 17.128C225.501 15.08 226.941 13.496 228.797 12.376C230.685 11.256 232.909 10.696 235.469 10.696ZM235.469 16.264C233.933 16.264 232.781 16.92 232.013 18.232C231.245 19.512 230.861 21.512 230.861 24.232C230.861 27.016 231.229 29.048 231.965 30.328C232.733 31.608 233.901 32.248 235.469 32.248C237.005 32.248 238.157 31.608 238.925 30.328C239.693 29.016 240.077 27 240.077 24.28C240.077 21.496 239.693 19.464 238.925 18.184C238.189 16.904 237.037 16.264 235.469 16.264Z" fill="black"/>
</svg>
